<svg xmlns="http://www.w3.org/2000/svg" viewBox="0 0 512 512">
  <defs>
    <linearGradient id="g" x1="0" y1="0" x2="1" y2="1">
      <stop offset="0" stop-color="#8b5cf6"/>
      <stop offset="1" stop-color="#ec4899"/>
    </linearGradient>
  </defs>
  <rect width="512" height="512" rx="112" fill="#0b0b13"/>
  <rect x="118" y="128" width="200" height="290" rx="28" fill="#1d1d2b" transform="rotate(-10 218 273)"/>
  <rect x="176" y="112" width="210" height="300" rx="28" fill="url(#g)" transform="rotate(6 281 262)"/>
  <path d="M281 322c-34-25-56-45-56-71 0-20 15-35 34-35 12 0 21 5 27 13 6-8 15-13 27-13 19 0 34 15 34 35 0 26-22 46-56 66l-5 5z" fill="#fff" transform="rotate(6 281 262)"/>
</svg>
