<svg xmlns="http://www.w3.org/2000/svg" viewBox="0 0 512 512">
  <defs>
    <linearGradient id="g" x1="0" y1="0" x2="1" y2="1">
      <stop offset="0" stop-color="#8b5cf6"/>
      <stop offset="1" stop-color="#ec4899"/>
    </linearGradient>
  </defs>
  <rect width="512" height="512" fill="#0b0b13"/>
  <rect x="148" y="158" width="170" height="240" rx="24" fill="#1d1d2b" transform="rotate(-10 233 278)"/>
  <rect x="196" y="146" width="180" height="250" rx="24" fill="url(#g)" transform="rotate(6 286 271)"/>
  <path d="M286 320c-29-21-48-38-48-60 0-17 13-30 29-30 10 0 18 4 23 11 5-7 13-11 23-11 16 0 29 13 29 30 0 22-19 39-48 56l-4 4z" fill="#fff" transform="rotate(6 286 271)"/>
</svg>
